<svg width="40" height="37" viewBox="0 0 40 37" fill="none" xmlns="http://www.w3.org/2000/svg">
<path d="M31.5 31.2958L22.1667 22.6625C21.3333 23.2792 20.375 23.7674 19.2917 24.1271C18.2083 24.4868 17.0556 24.6667 15.8333 24.6667C12.8056 24.6667 10.2433 23.697 8.14667 21.7575C6.04889 19.8171 5 17.4465 5 14.6458C5 11.8451 6.04889 9.47457 8.14667 7.53413C10.2433 5.59471 12.8056 4.625 15.8333 4.625C18.8611 4.625 21.4239 5.59471 23.5217 7.53413C25.6183 9.47457 26.6667 11.8451 26.6667 14.6458C26.6667 15.7764 26.4722 16.8427 26.0833 17.8448C25.6944 18.8469 25.1667 19.7333 24.5 20.5042L33.875 29.176C34.1806 29.4587 34.3333 29.8056 34.3333 30.2167C34.3333 30.6278 34.1667 30.9875 33.8333 31.2958C33.5278 31.5785 33.1389 31.7198 32.6667 31.7198C32.1944 31.7198 31.8056 31.5785 31.5 31.2958ZM15.8333 21.5833C17.9167 21.5833 19.6878 20.9091 21.1467 19.5607C22.6044 18.2112 23.3333 16.5729 23.3333 14.6458C23.3333 12.7188 22.6044 11.0805 21.1467 9.731C19.6878 8.38256 17.9167 7.70833 15.8333 7.70833C13.75 7.70833 11.9789 8.38256 10.52 9.731C9.06222 11.0805 8.33333 12.7188 8.33333 14.6458C8.33333 16.5729 9.06222 18.2112 10.52 19.5607C11.9789 20.9091 13.75 21.5833 15.8333 21.5833Z" fill="#FFF5FD"/>
</svg>
