<svg width="84" height="83" viewBox="0 0 84 83" fill="none" xmlns="http://www.w3.org/2000/svg">
<ellipse cx="42" cy="41.5" rx="42" ry="41.5" fill="#D9D9D9"/>
<path d="M41.4998 14.5C44.7266 14.5 47.8213 15.7116 50.103 17.8683C52.3847 20.0249 53.6665 22.95 53.6665 26C53.6665 29.05 52.3847 31.9751 50.103 34.1317C47.8213 36.2884 44.7266 37.5 41.4998 37.5C38.273 37.5 35.1784 36.2884 32.8967 34.1317C30.615 31.9751 29.3332 29.05 29.3332 26C29.3332 22.95 30.615 20.0249 32.8967 17.8683C35.1784 15.7116 38.273 14.5 41.4998 14.5ZM41.4998 43.25C54.944 43.25 65.8332 48.3963 65.8332 54.75V60.5H17.1665V54.75C17.1665 48.3963 28.0557 43.25 41.4998 43.25Z" fill="#888888"/>
</svg>
